{"title":"The Hateful Eight.(2015).h263.1080p[)(]Dts-5.1-(US).mkv","uid":13788733,"size":9939736067,"categoryP":"video","categoryS":"hd___movies","magnet":"?xt=urn:btih:b3772cdab508043ddcaf1f6555eec096f749073b&amp;dn=The+Hateful+Eight.%282015%29.h263.1080p%5B%29%28%5DDts-5.1-%28US%29.mkv&amp;tr=udp%3A%2F%2Ftracker.leechers-paradise.org%3A6969&amp;tr=udp%3A%2F%2Fzer0day.ch%3A1337&amp;tr=udp%3A%2F%2Fopen.demonii.com%3A1337&amp;tr=udp%3A%2F%2Ftracker.coppersurfer.tk%3A6969&amp;tr=udp%3A%2F%2Fexodus.desync.com%3A6969","seeders":0,"leechers":1,"uploader":"Tyr3ll","files":1,"time":1457383202,"description":"The Hateful Eight.(2015).h263.1080p[)(]Dts-5.1-(US).mkv\r\n\r\nSee imdb right here : \nhttp://www.imdb.com/title/tt3460252/\r\n\r\n3h 7min  | Crime, Drama, Mystery \r\nFrench title : Les huit Salopards\r\n\r\nDirector: Quentin Tarantino  \r\n\r\nWriter: Quentin Tarantino  \r\n\r\nStars: Samuel L. Jackson, Kurt Russell, Jennifer Jason Leigh and more.\r\n\r\nWon 1 Oscar\r\n\r\nSource : BD50 Import\r\n\r\nLanguage + Sub = US English only\r\n\r\nGeneral purpose : BDrip @ Copy by Master dubbing to mkv file\r\n\r\nVideo codec : h263 simple pass @ 1080p\r\n\r\nAudio codec : removed HD part from original Dts-HDMA 5.1\r\n\r\nQuality : a bit Grainy but acceptable quality anyway.\r\n\r\nFinal size : 9,25 Go\r\n\r\n-------------------------------------------------\r\n\r\nSee below for complete details :\r\n\r\n\r\nGeneral\r\nUnique ID                      : N/A\r\nComplete name                  : The Hateful Eight.(2015).h263.1080p[)(]Dts-5.1-(US).mkv\r\n\r\nFormat                         : Matroska\r\nFormat version                 : Version 4 / Version 2\r\nFile size                      : 9.26 GiB\r\nDuration                       : 2h 47mn\r\nOverall bit rate               : 7 901 Kbps\r\nEncoded date                   : UTC 2016-03-06 13:08:11\r\nWriting application            : Lavf57.26.100\r\nWriting library                : Lavf57.26.100 / Lavf57.26.100\r\n\r\nVideo\r\nID                             : 1\r\nFormat                         : H.263\r\nCodec ID                       : V_MS/VFW/FOURCC / H263\r\nDuration                       : 2h 47mn\r\nBit rate                       : 6 234 Kbps\r\nWidth                          : 1 920 pixels\r\nHeight                         : 704 pixels\r\nDisplay aspect ratio           : 2.727\r\nFrame rate mode                : Constant\r\nFrame rate                     : 23.976 fps\r\nBit depth                      : 8 bits\r\nCompression mode               : Lossy\r\nBits/(Pixel*Frame)             : 0.192\r\nStream size                    : 7.30 GiB (79%)\r\nWriting library                : Lavc57.25.101 h263p\r\nLanguage                       : English\r\nDefault                        : Yes\r\nForced                         : No\r\nDURATION                       : 02:47:44.654000000\r\n\r\nAudio\r\nID                             : 2\r\nFormat                         : DTS\r\nFormat/Info                    : Digital Theater Systems\r\nMode                           : 16\r\nFormat settings, Endianness    : Big\r\nCodec ID                       : A_DTS\r\nDuration                       : 2h 47mn\r\nBit rate mode                  : Constant\r\nBit rate                       : 1 509 Kbps\r\nChannel(s)                     : 6 channels\r\nChannel positions              : Front: L C R, Side: L R, LFE\r\nSampling rate                  : 48.0 KHz\r\nFrame rate                     : 93.750 fps (512 spf)\r\nBit depth                      : 24 bits\r\nCompression mode               : Lossy\r\nStream size                    : 1.77 GiB (19%)\r\nLanguage                       : English\r\nDefault                        : Yes\r\nForced                         : No\r\nDURATION                       : 02:47:44.628000000\r\n\r\nText #1\r\nID                             : 3\r\nFormat                         : VobSub\r\nCodec ID                       : S_VOBSUB\r\nCodec ID/Info                  : Picture based subtitle format used on DVDs\r\nLanguage                       : English\r\nDefault                        : Yes\r\nForced                         : No\r\nDURATION                       : 02:47:32.840000000\r\n\r\nText #2\r\nID                             : 4\r\nFormat                         : VobSub\r\nCodec ID                       : S_VOBSUB\r\nCodec ID/Info                  : Picture based subtitle format used on DVDs\r\nLanguage                       : English\r\nDefault                        : No\r\nForced                         : No\r\nDURATION                       : 02:47:18.960000000\r\n\r\nMenu\r\nChapters = 22\r\n\r\n\r\nHave a good Film :)\r\n\r\nEnjoy and have fun and please, seed with me as long as you can.\r\n\r\nTy and best regards","torrent":{"xt":"urn:btih:b3772cdab508043ddcaf1f6555eec096f749073b","amp;dn":"The+Hateful+Eight.%282015%29.h263.1080p%5B%29%28%5DDts-5.1-%28US%29.mkv","amp;tr":["udp%3A%2F%2Ftracker.leechers-paradise.org%3A6969","udp%3A%2F%2Fzer0day.ch%3A1337","udp%3A%2F%2Fopen.demonii.com%3A1337","udp%3A%2F%2Ftracker.coppersurfer.tk%3A6969","udp%3A%2F%2Fexodus.desync.com%3A6969"],"infoHash":"b3772cdab508043ddcaf1f6555eec096f749073b","infoHashBuffer":{"type":"Buffer","data":[179,119,44,218,181,8,4,61,220,175,31,101,85,238,192,150,247,73,7,59]},"announce":[],"urlList":[]}}